# xmcd CD database file
#
# Track frame offsets:
#	150
#	20748
#	43462
#	67129
#	81754
#	117530
#	135728
#	165758
#	184080
#	199651
#	218317
#	235920
#
# Disc length: 3375 seconds
#
# Revision: 0
# Processed by: cddbd v1.5.2PL0 Copyright (c) Steve Scherf et al.
# Submitted via: CDex 1.51
#
DISCID=a80d2d0c
DTITLE=Various Artist - Aangenaam Jazz 2011 CD1
DYEAR=2011
DGENRE=Jazz
TTITLE0=Ruben Hein - Lazy Afternoon
TTITLE1=Gretchen Parlato - Circling
TTITLE2=Jamie Cullum - I can't get started
TTITLE3=Rumer - Long long day
TTITLE4=Vince Mendoza /Ao Mar
TTITLE5=Jan Menu, Jasper Softers - Pappie loop toch niet zo snel
TTITLE6=Fay Claassen - Throw it away
TTITLE7=Gregory Porter - Water
TTITLE8=Bebel Gilberto - Nossa Senhora
TTITLE9=Brian Culbertson - It's Time
TTITLE10=Sergio Mendes - You and I
TTITLE11=fDELUXE - Drummers and healers
EXTD=YEAR: 2011
EXTT0=
EXTT1=
EXTT2=
EXTT3=
EXTT4=
EXTT5=
EXTT6=
EXTT7=
EXTT8=
EXTT9=
EXTT10=
EXTT11=
PLAYORDER=
